<?xml version="1.0" encoding="iso-8859-1"?>
<!-- Generator: Adobe Illustrator 19.0.0, SVG Export Plug-In . SVG Version: 6.00 Build 0)  -->
<svg version="1.1" id="Layer_1" xmlns="http://www.w3.org/2000/svg" xmlns:xlink="http://www.w3.org/1999/xlink" x="0px" y="0px"
	 viewBox="0 0 511.999 511.999" style="enable-background:new 0 0 511.999 511.999;" xml:space="preserve">
<path style="fill:#FFFFFF;" d="M416.954,388.669c46.86,0,84.847-37.988,84.847-84.847s-37.988-84.847-84.847-84.847
	c-4.371,0-8.664,0.333-12.857,0.97c-0.033-40.301-32.711-72.961-73.019-72.961c-16.962,0-32.56,5.799-44.956,15.503
	c-18.535-23.826-47.476-39.157-80.001-39.157c-54.25,0-98.539,42.644-101.177,96.24c-3.248-0.377-6.546-0.594-9.896-0.594
	c-46.86,0-84.847,37.988-84.847,84.847s37.988,84.847,84.847,84.847h321.906V388.669z"/>
<g>
	<path style="fill:#3D3D3D;" d="M416.954,398.869H95.046C42.638,398.869,0,356.231,0,303.822s42.638-95.046,95.046-95.046
		c0.229,0,0.458,0.001,0.688,0.003c7.709-54.399,54.346-95.649,110.385-95.649c31.414,0,60.72,12.905,81.797,35.719
		c12.971-7.92,27.716-12.065,43.161-12.065c42.086,0,76.995,31.432,82.47,72.053c1.136-0.041,2.271-0.061,3.405-0.061
		c52.41,0,95.046,42.638,95.046,95.046S469.362,398.869,416.954,398.869z M95.046,229.174c-41.161,0-74.648,33.487-74.648,74.648
		s33.487,74.648,74.648,74.648h321.907c41.161,0,74.648-33.487,74.648-74.648s-33.487-74.648-74.648-74.648
		c-3.788,0-7.597,0.288-11.325,0.854c-2.939,0.45-5.925-0.41-8.178-2.346c-2.255-1.936-3.552-4.759-3.554-7.73
		c-0.028-34.612-28.208-62.77-62.819-62.77c-14.153,0-27.525,4.611-38.671,13.334c-2.134,1.671-4.848,2.42-7.535,2.091
		c-2.691-0.333-5.137-1.722-6.801-3.86c-17.412-22.383-43.637-35.22-71.951-35.22c-48.634,0-88.6,38.013-90.989,86.542
		c-0.14,2.819-1.44,5.455-3.593,7.28c-2.152,1.825-4.961,2.678-7.771,2.35C100.726,229.345,97.874,229.174,95.046,229.174z"/>
	<path style="fill:#3D3D3D;" d="M221.033,365.959H93.504c-5.632,0-10.199-4.566-10.199-10.199c0-5.633,4.567-10.199,10.199-10.199
		h127.529c5.632,0,10.199,4.566,10.199,10.199C231.232,361.392,226.665,365.959,221.033,365.959z"/>
	<path style="fill:#3D3D3D;" d="M263.2,365.959h-5.142c-5.632,0-10.199-4.566-10.199-10.199c0-5.633,4.567-10.199,10.199-10.199
		h5.142c5.632,0,10.199,4.566,10.199,10.199C273.399,361.392,268.832,365.959,263.2,365.959z"/>
</g>
<g>
</g>
<g>
</g>
<g>
</g>
<g>
</g>
<g>
</g>
<g>
</g>
<g>
</g>
<g>
</g>
<g>
</g>
<g>
</g>
<g>
</g>
<g>
</g>
<g>
</g>
<g>
</g>
<g>
</g>
</svg>
